<svg width="40" height="40" viewBox="0 0 40 40" fill="none" xmlns="http://www.w3.org/2000/svg">
<path d="M33.3333 35H6.66667C5.75 35 5 34.25 5 33.3333V6.66667C5 5.75 5.75 5 6.66667 5H33.3333C34.25 5 35 5.75 35 6.66667V33.3333C35 34.25 34.25 35 33.3333 35Z" fill="#FF9800"/>
<path d="M17.5 5H22.5V10.8333H17.5V5Z" fill="#FFB74D"/>
<path d="M24.1667 30.8333H31.6667V31.6667H24.1667V30.8333ZM29.1667 26.6667H30.8333V30H29.1667V26.6667Z" fill="#B86D00"/>
<path d="M30 25L28.3333 27.5H31.6667L30 25ZM25 26.6667H26.6667V30H25V26.6667Z" fill="#B86D00"/>
<path d="M25.8333 25L24.1667 27.5H27.5L25.8333 25Z" fill="#B86D00"/>
</svg>
